<svg xmlns="http://www.w3.org/2000/svg" width="32" height="32" viewBox="-4 -5 36 36" fill="none" style="background-color: #55bbff">
  <path d="M15.4141 23.8112H12.5531C12.4151 23.129 12.077 22.5034 11.5819 22.0142C11.0869 21.5251 10.4573 21.1945 9.77356 21.0646C9.08982 20.9348 8.38291 21.0116 7.74301 21.2852C7.10311 21.5589 6.55924 22.017 6.18078 22.6011V22.6244C5.13233 22.0835 4.1777 21.3774 3.35344 20.5333C2.36837 19.5388 1.83267 18.6279 1.58862 18.0525C2.22915 17.8967 2.81094 17.559 3.26384 17.08C3.86714 16.4299 4.20076 15.5748 4.19711 14.6878V12.6065C4.19614 10.123 5.02324 7.70999 6.54755 5.74933C8.72814 2.9554 11.9479 1.3916 15.4136 1.3916C17.6276 1.39318 19.7914 2.05097 21.6317 3.28186C23.472 4.51276 24.9062 6.26152 25.7531 8.30722C26.6 10.3529 26.8216 12.6038 26.3899 14.7754C25.9582 16.947 24.8926 18.9419 23.3277 20.5081C21.2629 22.574 18.429 23.8112 15.4141 23.8112Z" fill="white"/>
  <path fill-rule="evenodd" clip-rule="evenodd" d="M24.3084 3.69366C26.6887 6.07552 28 9.23485 28 12.5897C28.0044 14.2436 27.6808 15.882 27.0481 17.4101C26.4153 18.9382 25.4859 20.3257 24.3135 21.4923C23.6658 22.1401 22.9499 22.7159 22.1782 23.2096C22.8707 24.9713 22.0448 27.1492 20.125 27.7932C17.929 28.5296 15.8782 27.1749 15.4871 25.1999H12.5511C12.393 25.9928 11.9638 26.7059 11.3373 27.2168C10.7108 27.7277 9.92597 28.0046 9.11757 27.9999C8.60757 27.9996 8.1038 27.8878 7.64152 27.6724C7.17924 27.4569 6.76964 27.1431 6.44137 26.7527C6.11311 26.3624 5.87412 25.905 5.74113 25.4126C5.60814 24.9202 5.58437 24.4047 5.67148 23.9022C4.4416 23.2963 3.32176 22.4888 2.35837 21.5133C0.96593 20.1058 -0.0494677 18.361 0.00186218 17.4122C0.0228607 17.0725 0.307508 16.8228 0.646752 16.8018C2.07279 16.7141 2.80914 15.7313 2.80914 14.6906V12.6574C2.80914 9.82191 3.74334 7.05739 5.50069 4.83232C7.95005 1.7332 11.5492 0 15.4162 0C18.7695 0 21.9281 1.3118 24.3084 3.69366ZM12.5529 23.8111H15.4139C18.4288 23.8111 21.2627 22.574 23.3275 20.5081C24.8924 18.9419 25.958 16.947 26.3897 14.7754C26.8214 12.6038 26.5998 10.3529 25.7529 8.30722C24.906 6.26152 23.4718 4.51275 21.6315 3.28186C19.7912 2.05097 17.6274 1.39318 15.4134 1.3916C11.9477 1.3916 8.72793 2.95539 6.54735 5.74932C5.02304 7.70998 4.19594 10.123 4.19691 12.6065V14.6878C4.20056 15.5747 3.86694 16.4299 3.26364 17.08C2.81074 17.559 2.22895 17.8967 1.58842 18.0525C1.83247 18.6279 2.36817 19.5388 3.35323 20.5333C4.1775 21.3774 5.13213 22.0835 6.18057 22.6244V22.6011C6.55904 22.017 7.10291 21.5589 7.74281 21.2852C8.38271 21.0116 9.08962 20.9348 9.77336 21.0646C10.4571 21.1944 11.0867 21.525 11.5817 22.0142C12.0768 22.5034 12.4149 23.129 12.5529 23.8111Z" fill="#202124"/>
  <path d="M21.0059 11.1975C21.7788 11.1975 22.4053 10.5707 22.4053 9.79746C22.4053 9.02426 21.7788 8.39746 21.0059 8.39746C20.233 8.39746 19.6064 9.02426 19.6064 9.79746C19.6064 10.5707 20.233 11.1975 21.0059 11.1975Z" fill="#202124"/>
  <path d="M12.6033 11.1975C13.3762 11.1975 14.0027 10.5707 14.0027 9.79746C14.0027 9.02426 13.3762 8.39746 12.6033 8.39746C11.8304 8.39746 11.2039 9.02426 11.2039 9.79746C11.2039 10.5707 11.8304 11.1975 12.6033 11.1975Z" fill="#202124"/>
  <path d="M13.0301 14.383C12.9722 14.2632 12.8816 14.1623 12.7688 14.092C12.656 14.0216 12.5256 13.9846 12.3926 13.9854C12.2758 13.9854 12.1609 14.0149 12.0585 14.071C11.9561 14.1271 11.8694 14.2081 11.8065 14.3065C11.7436 14.4049 11.7064 14.5175 11.6984 14.634C11.6904 14.7506 11.7119 14.8672 11.7608 14.9733C12.2136 15.9339 12.9302 16.746 13.8271 17.3148C14.7239 17.8835 15.7639 18.1855 16.8259 18.1855C17.8878 18.1855 18.9279 17.8835 19.8247 17.3148C20.7216 16.746 21.4382 15.9339 21.891 14.9733C21.94 14.8671 21.9614 14.7503 21.9534 14.6337C21.9453 14.5171 21.908 14.4043 21.8449 14.3059C21.7818 14.2075 21.695 14.1265 21.5924 14.0705C21.4897 14.0145 21.3747 13.9852 21.2578 13.9854H21.2396C21.1092 13.9861 20.9818 14.0239 20.872 14.0943C20.7623 14.1647 20.6749 14.2648 20.6199 14.383C20.28 15.1017 19.7429 15.7091 19.0712 16.1345C18.3996 16.5598 17.6209 16.7856 16.8259 16.7856C16.0309 16.7856 15.2522 16.5598 14.5805 16.1345C13.9089 15.7091 13.3718 15.1017 13.0319 14.383H13.0301Z" fill="#202124"/>
</svg>
